<?xml version="1.0" standalone="no"?>
<!DOCTYPE svg PUBLIC "-//W3C//DTD SVG 20010904//EN"
 "http://www.w3.org/TR/2001/REC-SVG-20010904/DTD/svg10.dtd">
<svg version="1.0" xmlns="http://www.w3.org/2000/svg"
 width="1058.000000pt" height="1058.000000pt" viewBox="0 0 1058.000000 1058.000000"
 preserveAspectRatio="xMidYMid meet">
<metadata>
Created by potrace 1.11, written by Peter Selinger 2001-2013
</metadata>
<g transform="translate(0.000000,1058.000000) scale(0.100000,-0.100000)"
fill="#000000" stroke="none">
<path d="M4910 10550 c-968 -81 -1786 -362 -2570 -886 -195 -130 -364 -260
-575 -444 -52 -45 -368 -362 -420 -420 -234 -265 -474 -597 -645 -894 -351
-609 -598 -1369 -665 -2046 -3 -36 -8 -78 -10 -95 -27 -201 -24 -729 5 -1010
21 -202 27 -245 56 -405 165 -899 535 -1701 1113 -2410 47 -58 88 -107 91
-110 3 -3 27 -30 54 -60 124 -139 337 -350 465 -460 35 -30 69 -60 75 -65 6
-6 54 -45 106 -86 651 -516 1373 -859 2178 -1034 136 -30 383 -71 472 -80 36
-3 76 -8 90 -10 14 -2 63 -7 110 -11 47 -4 103 -8 125 -10 62 -5 594 -5 650 0
28 3 79 8 115 11 127 11 175 16 200 20 14 2 50 7 80 10 313 35 918 191 1185
305 11 5 74 31 140 58 344 143 717 351 1030 575 102 74 332 255 395 312 284
257 457 439 655 685 480 598 824 1299 1005 2045 38 155 82 377 95 480 3 28 8
61 10 75 7 43 24 211 32 305 10 120 10 656 0 775 -11 128 -40 380 -51 435 -2
11 -7 40 -11 65 -3 25 -13 77 -20 115 -8 39 -17 86 -20 105 -5 30 -34 144 -88
350 -25 94 -126 389 -179 520 -108 267 -284 608 -442 855 -140 218 -354 505
-490 655 -269 295 -513 521 -791 729 -114 86 -303 217 -376 261 -13 8 -71 43
-129 78 -143 86 -534 278 -705 345 -365 144 -728 246 -1090 306 -109 18 -145
23 -255 36 -19 2 -59 7 -88 10 -30 4 -75 9 -100 11 -85 9 -715 12 -812 4z"/>
</g>
</svg>
